#N canvas 105 147 1454 625 12;
#X obj 384 251 list prepend send;
#X floatatom 380 162 5 0 0 0 - - - 0;
#X obj 382 285 list trim;
#X obj 396 371 netsend -u -b;
#X msg 492 330 disconnect;
#X obj 201 120 netreceive -u -b 9000;
#X obj 201 154 oscparse;
#X obj 201 178 route list;
#X obj 201 212 route hand;
#X obj 201 250 route pos;
#X floatatom 199 323 5 0 0 0 - - - 0;
#X floatatom 269 328 5 0 0 0 - - - 0;
#X obj 267 358 s Y;
#X obj 196 354 s X;
#X obj 372 95 - 0.5;
#X obj 376 121 * -360;
#X obj 664 250 list prepend send;
#X floatatom 660 161 5 0 0 0 - - - 0;
#X obj 662 284 list trim;
#X obj 676 370 netsend -u -b;
#X msg 772 329 disconnect;
#X obj 652 94 - 0.5;
#X obj 656 120 * -360;
#X msg 763 303 connect localhost 9997;
#X obj 651 59 r X;
#X obj 664 211 oscformat StereoEncoder azimuth;
#X obj 371 60 r Y;
#X obj 384 212 oscformat StereoEncoder elevation;
#X msg 483 304 connect localhost 9997;
#X obj 196 289 unpack f f f f;
#X obj 951 265 list prepend send;
#X floatatom 947 176 5 0 0 0 - - - 0;
#X obj 949 299 list trim;
#X obj 963 385 netsend -u -b;
#X floatatom 332 331 5 0 0 0 - - - 0;
#X obj 333 362 s H;
#X obj 938 74 r H;
#X msg 1050 318 connect localhost 9998;
#X obj 1109 95;
#X obj 943 135 * 2000;
#X obj 951 226 oscformat MultiEQ filterFrequency5;
#X connect 0 0 2 0;
#X connect 1 0 27 0;
#X connect 2 0 3 0;
#X connect 4 0 3 0;
#X connect 5 0 6 0;
#X connect 6 0 7 0;
#X connect 7 0 8 0;
#X connect 8 0 9 0;
#X connect 9 0 29 0;
#X connect 10 0 13 0;
#X connect 11 0 12 0;
#X connect 14 0 15 0;
#X connect 15 0 1 0;
#X connect 16 0 18 0;
#X connect 17 0 25 0;
#X connect 18 0 19 0;
#X connect 20 0 19 0;
#X connect 21 0 22 0;
#X connect 22 0 17 0;
#X connect 23 0 19 0;
#X connect 24 0 21 0;
#X connect 25 0 16 0;
#X connect 26 0 14 0;
#X connect 27 0 0 0;
#X connect 28 0 3 0;
#X connect 29 0 10 0;
#X connect 29 1 11 0;
#X connect 29 2 34 0;
#X connect 30 0 32 0;
#X connect 31 0 40 0;
#X connect 32 0 33 0;
#X connect 34 0 35 0;
#X connect 36 0 39 0;
#X connect 37 0 33 0;
#X connect 39 0 31 0;
#X connect 40 0 30 0;
